<?xml version="1.0" standalone="no"?><!DOCTYPE svg PUBLIC "-//W3C//DTD SVG 1.1//EN" "http://www.w3.org/Graphics/SVG/1.1/DTD/svg11.dtd"><svg t="1589266987030" class="icon" viewBox="0 0 1024 1024" version="1.1" xmlns="http://www.w3.org/2000/svg" p-id="3578" width="200" height="200" xmlns:xlink="http://www.w3.org/1999/xlink"><defs><style type="text/css"></style></defs><path d="M509.333333 332.266667c-57.6 0-101.333333 43.733333-101.333333 101.333333s43.733333 101.333333 101.333333 101.333333 101.333333-43.733333 101.333334-101.333333-43.733333-101.333333-101.333334-101.333333z" p-id="3579" fill="#CF111B"></path><path d="M871.466667 275.2c-19.733333-48-48-87.466667-84.8-121.6-36.8-34.133333-76.266667-62.4-124.266667-82.133333-48-19.733333-99.2-30.933333-152.533333-30.933334C456 40.533333 405.333333 49.066667 357.333333 71.466667c-48 19.733333-90.666667 48-124.266666 82.133333S167.466667 229.866667 147.2 275.2c-19.733333 48-30.933333 99.2-30.933333 149.866667 0 76.266667 19.733333 147.2 53.866666 220.266666 28.266667 56.533333 67.733333 113.066667 118.933334 166.933334 84.8 90.666667 175.466667 147.2 200.533333 161.066666 5.866667 5.866667 17.066667 5.866667 22.4 5.866667 8.533333 0 17.066667-2.666667 22.4-5.866667 25.6-14.4 115.733333-70.933333 200.533333-161.066666 48-53.866667 90.666667-110.4 118.933334-166.933334 34.133333-70.933333 53.866667-147.2 53.866666-220.266666-5.333333-50.666667-13.866667-101.866667-36.266666-149.866667z m-362.133334 345.066667c-104.533333 0-186.666667-82.133333-186.666666-186.666667s82.133333-186.666667 186.666666-186.666667 186.666667 82.133333 186.666667 186.666667-82.133333 186.666667-186.666667 186.666667z" p-id="3580" fill="#CF111B"></path></svg>