<?xml version="1.0" encoding="utf-8"?>
<!-- Generator: Adobe Illustrator 24.0.0, SVG Export Plug-In . SVG Version: 6.00 Build 0)  -->
<svg version="1.1" id="图层_1" xmlns="http://www.w3.org/2000/svg" xmlns:xlink="http://www.w3.org/1999/xlink" x="0px" y="0px"
	 viewBox="0 0 200 200" style="enable-background:new 0 0 200 200;" xml:space="preserve">
<style type="text/css">
	.st0{fill:#fff;stroke:#fff;stroke-miterlimit:10;}
</style>
<path class="st0" d="M177.9,83.9c-6.7,0-12.5,4.1-14.9,10h-21.7c-3.2,0-5.9,2.6-5.9,5.9l0,0.1l0,0.1c0,19.4-15.8,35.2-35.2,35.2
	S65.1,119.4,65.1,100s15.8-35.2,35.2-35.2c8.1,0,15.9,2.8,22.2,7.9c2.5,2,6.2,1.7,8.3-0.8c2-2.5,1.7-6.2-0.8-8.3
	c-8.4-6.8-18.8-10.5-29.6-10.5c-11.2,0-21.3,4.1-29.4,10.7L49.2,42.2c2.3-3.6,3.7-7.9,3.7-12.5c0-12.9-10.5-23.4-23.4-23.4
	S6,16.7,6,29.7s10.5,23.4,23.4,23.4c4.1,0,7.9-1.1,11.2-3l22.1,22.1c-6,8-9.3,17.8-9.3,27.8c0,11.1,4,21.1,10.4,29.1l-21.6,21.6
	c-3.8-2.5-8.2-3.8-12.8-3.8C16.5,146.9,6,157.4,6,170.3s10.5,23.4,23.4,23.4s23.4-10.5,23.4-23.4l0,0c0-3.9-1.1-7.6-2.8-10.9
	l22.1-22.1c8.1,6.2,17.9,9.5,28.1,9.6c23.9,0,43.5-18.1,46.3-41.3h16.3c3.1,8.3,12.3,12.6,20.7,9.5c6.3-2.3,10.5-8.4,10.5-15.1
	C194,91.1,186.8,83.9,177.9,83.9"/>
</svg>
