<?xml version="1.0" encoding="utf-8"?>
<!-- Generator: Adobe Illustrator 24.0.0, SVG Export Plug-In . SVG Version: 6.00 Build 0)  -->
<svg version="1.1" id="图层_1" xmlns="http://www.w3.org/2000/svg" xmlns:xlink="http://www.w3.org/1999/xlink" x="0px" y="0px"
	 viewBox="0 0 200 200" style="enable-background:new 0 0 200 200;" xml:space="preserve">
<style type="text/css">
	.st0{fill:#fff;stroke:#fff;stroke-width:3.1117;stroke-miterlimit:10;}
	.st1{fill:#fff;stroke:#fff;stroke-width:2.0745;stroke-miterlimit:10;}
</style>
<path class="st0" d="M197.5,100.1c0-12.7-11.6-24.2-30.8-32.5c0-0.6,0-0.6,0.6-1.1c5.5-20.4,3.3-35.3-6.6-43
	C147.4,13,124.2,19.6,100,37.8C75.8,19.1,52.6,13,39.4,23.5c-9.9,8.3-11.6,24.2-6.1,44.1C14.6,75.8,2.5,86.9,2.5,100.1
	c0,12.7,11.6,24.2,30.8,32.5c-5.5,19.8-3.9,35.8,6.1,44.1c4.4,3.3,9.4,5,15.4,5c12.7,0,28.6-7.2,45.2-19.3
	c16.5,12.7,32.5,19.3,45.2,19.3c6.1,0,11.6-1.7,15.4-5c9.9-7.7,12.1-23.1,6.6-43c0-0.6,0-0.6-0.6-1.1
	C185.9,124.3,197.5,112.7,197.5,100.1z M144.6,26.3c4.4,0,8.3,1.1,11,3.3c7.2,5.5,8.3,18.2,3.9,35.3c-11-3.9-24.2-6.6-39.1-8.3
	c-5-5-9.9-9.4-14.3-13.8C120.4,32.3,134.7,26.3,144.6,26.3z M128.6,122.7c-3.9,4.4-7.2,8.8-11,13.2c-5.5,0.6-11.6,0.6-17.1,0.6
	c-6.1,0-11.6,0-17.1-0.6c-3.9-3.9-7.7-8.3-11-13.2c-6.1-7.7-11-14.9-15.4-22.6c4.4-7.7,9.9-15.4,15.4-22.6c3.9-4.4,7.7-8.8,11-13.2
	c5.5-0.6,11.6-0.6,17.1-0.6c5.5,0,11.6,0,17.1,0.6c3.9,3.9,7.7,8.3,11,13.2c6.1,7.2,11,14.9,15.4,22.6
	C139.7,107.8,134.2,115.5,128.6,122.7L128.6,122.7z M148.5,107.8c3.9,6.6,6.6,13.8,8.8,19.8c-8.3,2.8-18.2,5-28.6,6.6
	c2.2-2.2,3.9-4.4,5.5-7.2C139.7,121,144.1,114.4,148.5,107.8L148.5,107.8z M108.8,144.1c-2.8,2.8-6.1,5.5-8.8,8.3
	c-2.8-2.8-6.1-5-8.8-8.3L108.8,144.1L108.8,144.1z M71.4,134.2c-10.5-1.7-20.4-3.9-28.6-6.6c2.2-6.6,5.5-13.2,8.8-19.8
	c3.9,6.6,8.8,13.2,13.8,19.8C67.5,129.8,69.2,132,71.4,134.2z M51.5,92.4c-3.9-6.6-6.6-13.8-8.8-19.8c8.3-2.8,18.2-5,28.6-6.6
	c-2.2,2.2-3.9,4.4-5.5,7.2C60.3,79.1,55.9,85.7,51.5,92.4L51.5,92.4z M91.2,56c2.8-2.8,6.1-5.5,8.8-8.3c2.8,2.8,6.1,5,8.8,8.3
	L91.2,56L91.2,56z M134.7,72.5c-1.7-2.2-3.9-4.4-5.5-7.2c10.5,1.7,20.4,3.9,28.6,6.6c-2.2,6.6-5.5,13.2-8.8,19.8
	C144.1,85.7,139.7,79.1,134.7,72.5L134.7,72.5z M44.4,29.6c2.8-2.2,6.6-3.3,11-3.3c10.5,0,24.2,6.1,38.6,17.1
	c-5,3.9-9.9,8.8-14.3,13.8c-14.3,1.1-27.5,4.4-39.1,8.3C35.6,48.8,36.7,35.6,44.4,29.6L44.4,29.6z M10.2,100.1
	c0-9.4,9.9-18.2,25.3-24.8c2.8,7.7,6.6,16.5,11.6,24.8c-5,8.8-8.8,17.1-11.6,24.8C20.1,118.2,10.2,109.4,10.2,100.1z M44.4,170.6
	c-7.7-6.1-8.3-19.3-3.9-35.3c11,3.9,24.2,6.6,39.1,8.3c5,5,9.9,9.4,14.3,13.8C73,172.2,54.3,178.3,44.4,170.6z M159.5,135.3
	c4.4,16.5,3.3,29.7-3.9,35.3c-9.9,7.7-29.2,1.7-49.6-13.8c5-3.9,9.9-8.8,14.3-13.8C135.3,141.9,148.5,139.2,159.5,135.3z
	 M164.4,124.9c-2.8-8.3-6.6-16.5-11.6-24.8c5-8.3,8.8-17.1,11.6-24.8c15.4,6.6,25.3,15.4,25.3,24.8
	C189.8,109.4,179.9,118.2,164.4,124.9z"/>
<path class="st1" d="M100.6,85v14.4H115c0,7.9-7,15-15,15s-14.4-6.5-14.4-14.4S92.7,85,100.6,85 M107.2,78.4H100
	c-12.2,0-21.6,9.3-21.6,21.6s9.3,21.6,21.6,21.6s21.6-9.3,21.6-21.6c0-1.8,0-7.2,0-7.2h-14.4V78.4z"/>
</svg>
