<?xml version="1.0" encoding="utf-8"?>
<!-- Generator: Adobe Illustrator 24.0.0, SVG Export Plug-In . SVG Version: 6.00 Build 0)  -->
<svg version="1.1" id="图层_1" xmlns="http://www.w3.org/2000/svg" xmlns:xlink="http://www.w3.org/1999/xlink" x="0px" y="0px"
	 viewBox="0 0 200 200" style="enable-background:new 0 0 200 200;" xml:space="preserve">
<style type="text/css">
	.st0{fill:#CF111B;}
</style>
<path class="st0" d="M151.1,196.4c-2.8,0-6-0.8-8.9-2.3l-41.9-20.9l-42.1,20.9c-2.7,1.4-5.7,2.2-8.8,2.2c-4,0-8-1.3-11.2-3.7
	c-5.9-4.4-8.9-12.1-7.5-19.1l8.6-44.7L6.2,98c-5.1-5.2-7.1-12.7-5.1-19.7l0.1-0.2C3.5,71,9.5,65.9,16.7,65l45.9-8.3l20.6-41.8
	C86.5,8.3,93.2,4,100.3,4c7.4,0,14.3,4.4,17.2,11L138,56.6l45.9,8c7.3,1.1,13.3,6.3,15.3,13.4c2.3,7,0.4,14.6-4.8,19.7l-0.1,0.1
	l-32.9,31l8.3,44.8c1.3,7.2-1.5,14.4-7.4,18.9C159.1,195,155.1,196.4,151.1,196.4L151.1,196.4z M100.3,157.4l43.9,22
	c1.3,0.6,2.8,1.1,3.8,1.1c1.6,0,3-0.5,4.1-1.4l0.2-0.2c2.5-1.9,3.7-4.9,3.2-7.8l-8.8-47.6l35-32.9c2.1-2.2,2.9-5.3,1.9-8.2l-0.1-0.3
	c-0.8-2.8-3.1-4.8-6-5.2h-0.2l-48.4-8.5l-21.8-44.2c-1.1-2.5-3.9-4.3-6.8-4.3c-2.8,0-5.6,1.8-6.9,4.5l-21.6,44l-48.7,8.8
	c-3,0.4-5.2,2.3-6.3,5.4c-0.8,2.8,0.1,6.2,2.2,8.3l35,32.6l-9.2,47.7c-0.6,2.8,0.8,5.9,3.2,7.7c1.2,0.9,2.8,1.4,4.4,1.4
	c1.3,0,2.5-0.3,3.5-0.9l0.2-0.1L100.3,157.4L100.3,157.4z"/>
</svg>
