<?xml version="1.0" encoding="utf-8"?>
<!-- Generator: Adobe Illustrator 24.0.0, SVG Export Plug-In . SVG Version: 6.00 Build 0)  -->
<svg version="1.1" id="图层_1" xmlns="http://www.w3.org/2000/svg" xmlns:xlink="http://www.w3.org/1999/xlink" x="0px" y="0px"
	 viewBox="0 0 200 200" style="enable-background:new 0 0 200 200;" xml:space="preserve">
<style type="text/css">
	.st0{fill:#212121;}
	.st1{fill:#C02D28;stroke:#C02D28;stroke-width:1.5365;stroke-miterlimit:10;}
	.st2{fill:#FFFFFF;}
	.st3{fill:#C02D28;stroke:#C02D28;stroke-width:0.712;stroke-miterlimit:10;}
</style>
<path class="st0" d="M148,37.9h-12.7v-2.4c0-1.2-1-2.2-2.2-2.2h-11.7c-2.3-9.8-10.6-18.8-21-18.8s-19.3,9.1-21.6,18.8H67
	c-1.2,0-2.2,1-2.2,2.2v2.4H52c-15.2,0-27.7,11.8-27.7,27.1v96.6c0,15.4,12.4,27.8,27.7,27.8h96c15.2,0,27.7-12.5,27.7-27.8V65
	C175.7,49.6,163.2,37.9,148,37.9z M75.8,42.4H88v-5.9c0-6.6,5.8-12.8,12.3-12.8s11.4,6.2,11.4,12.8v5.9h11.9c1.2,0,2.2,1,2.2,2.2
	v21.6l0,0H73.7l0,0V43.8C74,43,74.8,42.4,75.8,42.4z M148,179.9H52c-9.6,0-18.7-8.6-18.7-18.4V65c0-9.7,9-17.6,18.7-17.6h12.8v28.4
	h70.5l0,0l0,0V47.3H148c9.7,0,18,7.9,18,17.6v96.6C165.9,171.2,157.6,179.9,148,179.9z"/>
<circle class="st1" cx="162.4" cy="51" r="19.4"/>
<g>
	<path class="st2" d="M156,43.3h2.5l7.5,11h0.1v-11h2.5v15.3h-2.4l-7.6-11.2h-0.1v11.2H156V43.3z"/>
</g>
<path class="st3" d="M127.9,145.1c-0.6-4-7.6-4.8-7.7-7.5s0.6-16.8,0.6-16.8c0.4-11.1-7.2-17.2-15.1-19.9v-0.1c0-0.1,0-0.1,0-0.2
	c0-3.1-2.5-5.7-5.7-5.7c-3.1,0-5.7,2.5-5.7,5.7c0,0.1,0,0.1,0,0.2s0,0.1,0,0.1c-7.8,2.8-15.4,8.8-15.1,19.9c0,0,0.7,14.1,0.6,16.8
	s-7.1,3.5-7.7,7.5c-0.4,1.5,1.4,3.1,3.1,3.1h17.9c0,0.3-0.1,0.6-0.1,0.9c0,3.9,3.1,7,7,7s7-3.1,7-7c0-0.3,0-0.6-0.1-0.9h17.9
	C126.6,148.2,128.3,146.7,127.9,145.1z"/>
</svg>
