<?xml version="1.0" encoding="utf-8"?>
<!-- Generator: Adobe Illustrator 24.0.0, SVG Export Plug-In . SVG Version: 6.00 Build 0)  -->
<svg version="1.1" id="图层_1" xmlns="http://www.w3.org/2000/svg" xmlns:xlink="http://www.w3.org/1999/xlink" x="0px" y="0px"
	 viewBox="0 0 200 200" style="enable-background:new 0 0 200 200;" xml:space="preserve">
<style type="text/css">
	.st0{fill:#c02d28;}
	.st1{fill:none;stroke:#c02d28;stroke-width:6.9866;stroke-linecap:round;stroke-linejoin:round;stroke-miterlimit:10;}
</style>
<g>
	<path class="st0" d="M99.9,145.6c-2,0-3.6-1.9-3.6-4.4V93.4c0-2.4,1.6-4.4,3.6-4.4c2,0,3.6,2,3.6,4.4v47.8
		C103.5,143.7,102,145.6,99.9,145.6z"/>
	<path class="st0" d="M153.7,127.8c-3,0-5.4-2.4-5.4-5.2v-14.4H51.4v14.4c0,2.9,0.6,5.2-2.4,5.2s-5.4-2.4-5.4-5.2v-16.8
		c0-2.8,2.4-5.2,5.4-5.2h101.8c3,0,5.4,2.4,5.4,5.2v16.7C156,125.4,156.5,127.8,153.7,127.8z"/>
	<path class="st0" d="M160.8,58l-58.5,22.4c-0.8,0.3-1.5,0.5-2.4,0.5c-0.9,0-1.7-0.2-2.4-0.5L39.1,58c-2.2-0.9-3.8-2.9-3.8-5.1
		c0-2.4,1.6-4.4,3.8-5.1l58.5-22.4c0.8-0.3,1.5-0.4,2.4-0.4c0.9,0,1.6,0.1,2.4,0.4L161,47.6c2.3,0.9,3.8,2.9,3.8,5.1
		C164.7,55.3,163,57.2,160.8,58z"/>
	<path class="st1" d="M160.8,68.7L102.2,91c-0.8,0.3-1.5,0.5-2.4,0.5c-0.9,0-1.7-0.1-2.4-0.5L39.1,68.7"/>
	<path class="st0" d="M32.8,145.3h29.5v-17.2H32.8V145.3z M65.4,153.4H29.9c-2.7,0-4.9-2.1-4.9-4.8v-23.9c0-2.7,2.2-4.8,4.9-4.8
		h35.4c2.7,0,4.9,2.1,4.9,4.8v23.9C70.3,151.2,68,153.4,65.4,153.4z"/>
	<path class="st0" d="M137.6,145.3h29.6v-17.2h-29.6C137.7,128.1,137.7,145.3,137.6,145.3z M170,153.4h-35.4c-2.7,0-4.9-2.1-4.9-4.8
		v-23.9c0-2.7,2.2-4.8,4.9-4.8H170c2.7,0,5,2.1,5,4.8v23.9C175,151.2,172.8,153.4,170,153.4z"/>
	<path class="st0" d="M85.1,166.9h29.6v-17.2H85.1V166.9z M117.5,175H82.1c-2.7,0-5-2.1-5-4.8v-23.8c0-2.7,2.3-4.8,5-4.8h35.4
		c2.7,0,5,2.1,5,4.8v23.8C122.5,172.8,120.4,175,117.5,175z"/>
</g>
</svg>
