<?xml version="1.0" encoding="utf-8"?>
<!-- Generator: Adobe Illustrator 24.0.0, SVG Export Plug-In . SVG Version: 6.00 Build 0)  -->
<svg version="1.1" id="图层_1" xmlns="http://www.w3.org/2000/svg" xmlns:xlink="http://www.w3.org/1999/xlink" x="0px" y="0px"
	 viewBox="0 0 200 200" style="enable-background:new 0 0 200 200;" xml:space="preserve">
<style type="text/css">
	.st0{fill:#212121;}
</style>
<path class="st0" d="M128.2,114.7c-0.6,0-1.1-0.3-1.6-0.3l-12.2,27.1c3.4,2.5,5.7,6.3,5.7,10.8c0,7.5-6.1,13.6-13.6,13.6
	c-7.5,0-13.6-6.1-13.6-13.6c0-7.5,6.1-13.6,13.6-13.6c1,0,2,0.4,3,0.6l12-26.7c-3.2-1.9-5.4-4.9-6.2-8.6l-30.8-4
	c-2,5.1-6.8,8.8-12.6,8.8c-7.5,0-13.6-6.1-13.6-13.6c0-7.5,6.1-13.6,13.6-13.6c1.7,0,3.3,0.4,4.8,1l16.3-25.2
	c-2.5-2.5-4.1-5.9-4.1-9.7c0-7.5,6.1-13.6,13.6-13.6s13.6,6.1,13.6,13.6s-6.1,13.6-13.6,13.6c-1.7,0-3.4-0.4-4.9-1L81.2,85.5
	c2.4,2.3,3.9,5.6,4.1,9.2l29.8,3.9c1.3-6.2,6.5-11,13.1-11c7.5,0,13.6,6.1,13.6,13.6S135.7,114.7,128.2,114.7z"/>
</svg>
