<?xml version="1.0" encoding="utf-8"?>
<!-- Generator: Adobe Illustrator 24.0.0, SVG Export Plug-In . SVG Version: 6.00 Build 0)  -->
<svg version="1.1" id="图层_1" xmlns="http://www.w3.org/2000/svg" xmlns:xlink="http://www.w3.org/1999/xlink" x="0px" y="0px"
	 viewBox="0 0 200 200" style="enable-background:new 0 0 200 200;" xml:space="preserve">
<style type="text/css">
	.st0{fill:#212121;}
</style>
<path class="st0" d="M81.2,75c-3.8,0-6.2,2.5-6.2,6.2v62.5c0,3.8,2.5,6.2,6.2,6.2s6.2-2.5,6.2-6.2V81.2C87.5,77.5,85,75,81.2,75z"/>
<path class="st0" d="M181.2,37.5h-43.8v-6.2c0-10.6-8.1-18.8-18.8-18.8H81.2c-10.6,0-18.8,8.1-18.8,18.8v6.2H18.8
	c-3.7,0-6.2,2.5-6.2,6.2S15,50,18.8,50h12.5v118.8c0,10.6,8.1,18.8,18.8,18.8h100c10.6,0,18.8-8.1,18.8-18.8V50h12.5
	c3.8,0,6.2-2.5,6.2-6.2S185,37.5,181.2,37.5z M75,31.2c0-3.8,2.5-6.2,6.2-6.2h37.5c3.8,0,6.2,2.5,6.2,6.2v6.2H75V31.2z M156.2,168.8
	c0,3.8-2.5,6.2-6.2,6.2H50c-3.8,0-6.2-2.5-6.2-6.2V50h112.5V168.8z"/>
<path class="st0" d="M118.8,75c-3.8,0-6.2,2.5-6.2,6.2v62.5c0,3.8,2.5,6.2,6.2,6.2s6.2-2.5,6.2-6.2V81.2C125,77.5,122.5,75,118.8,75
	z"/>
</svg>
