<?xml version="1.0" encoding="utf-8"?>
<!-- Generator: Adobe Illustrator 24.0.0, SVG Export Plug-In . SVG Version: 6.00 Build 0)  -->
<svg version="1.1" id="图层_1" xmlns="http://www.w3.org/2000/svg" xmlns:xlink="http://www.w3.org/1999/xlink" x="0px" y="0px"
	 viewBox="0 0 200 200" style="enable-background:new 0 0 200 200;" xml:space="preserve">
<style type="text/css">
	.st0{fill:#212121;}
</style>
<path class="st0" d="M148.4,35.6h-12.7v-2.4c0-1.2-1-2.2-2.2-2.2h-11.7c-2.3-9.8-10.6-18.8-21-18.8S81.5,21.3,79.2,31H67.4
	c-1.2,0-2.2,1-2.2,2.2v2.4H52.5c-15.2,0-27.7,11.8-27.7,27.1v96.6c0,15.4,12.4,27.8,27.7,27.8h96c15.2,0,27.7-12.5,27.7-27.8V62.7
	C176.1,47.3,163.7,35.6,148.4,35.6z M76.3,40.1h12.2v-5.9c0-6.6,5.8-12.8,12.3-12.8s11.4,6.2,11.4,12.8v5.9h11.9
	c1.2,0,2.2,1,2.2,2.2v21.6l0,0H74.2l0,0V41.6C74.5,40.7,75.3,40.1,76.3,40.1z M166.4,159.2c0,9.7-8.3,18.4-18,18.4h-96
	c-9.6,0-18.7-8.6-18.7-18.4V62.6c0-9.7,9-17.6,18.7-17.6h12.8v28.4h70.5l0,0l0,0V45.1h12.7c9.7,0,18,7.9,18,17.6V159.2z"/>
<g>
	<g>
		<path class="st0" d="M100.5,154.2c-2,0-3.7-1.7-3.7-3.7V113c0-2,1.7-3.7,3.7-3.7s3.7,1.7,3.7,3.7v37.5
			C104.2,152.5,102.5,154.2,100.5,154.2z"/>
		<path class="st0" d="M100.5,109.6c1.9,0,3.4,1.5,3.4,3.4v37.5c0,1.9-1.5,3.4-3.4,3.4l0,0c-1.9,0-3.4-1.5-3.4-3.4V113
			C97.1,111.1,98.6,109.6,100.5,109.6L100.5,109.6 M100.5,108.9c-2.2,0-4.1,1.8-4.1,4.1v37.5c0,2.2,1.8,4.1,4.1,4.1s4.1-1.8,4.1-4.1
			V113C104.5,110.7,102.7,108.9,100.5,108.9L100.5,108.9z"/>
	</g>
	<g>
		<g>
			<path class="st0" d="M74,126.2c-1,0-1.9-0.4-2.6-1.1c-1.4-1.5-1.4-3.8,0-5.3l26.5-26.5c0.7-0.7,1.6-1.1,2.6-1.1s1.9,0.4,2.6,1.1
				c1.4,1.4,1.4,3.8,0,5.3l-26.5,26.5C75.9,125.8,75,126.2,74,126.2z"/>
			<path class="st0" d="M100.5,92.6c0.9,0,1.7,0.3,2.4,1c1.3,1.3,1.3,3.5,0,4.8l-26.5,26.5c-0.7,0.7-1.5,1-2.4,1s-1.7-0.3-2.4-1
				c-1.3-1.3-1.3-3.5,0-4.8l26.5-26.5C98.7,92.9,99.6,92.6,100.5,92.6 M100.5,91.9c-1.1,0-2.1,0.4-2.9,1.2l-26.5,26.5
				c-0.8,0.8-1.2,1.8-1.2,2.9s0.4,2.1,1.2,2.9c0.8,0.8,1.8,1.2,2.9,1.2s2.1-0.4,2.9-1.2l26.5-26.5c0.8-0.8,1.2-1.8,1.2-2.9
				s-0.4-2.1-1.2-2.9C102.6,92.3,101.6,91.9,100.5,91.9L100.5,91.9z"/>
		</g>
		<g>
			<path class="st0" d="M127,126.2c-1,0-1.9-0.4-2.6-1.1L97.8,98.6c-1.4-1.4-1.4-3.8,0-5.3c0.7-0.7,1.6-1.1,2.6-1.1s1.9,0.4,2.6,1.1
				l26.5,26.5c1.4,1.5,1.4,3.8,0,5.3C128.9,125.8,128,126.2,127,126.2z"/>
			<path class="st0" d="M100.5,92.6c0.9,0,1.7,0.3,2.4,1l26.5,26.5c1.3,1.3,1.3,3.5,0,4.8c-0.7,0.7-1.5,1-2.4,1s-1.7-0.3-2.4-1
				L98.1,98.3c-1.3-1.3-1.3-3.5,0-4.8l0,0C98.7,92.9,99.6,92.6,100.5,92.6 M100.5,91.9c-1.1,0-2.1,0.4-2.9,1.2
				c-0.8,0.8-1.2,1.8-1.2,2.9s0.4,2.1,1.2,2.9l26.5,26.5c0.8,0.8,1.8,1.2,2.9,1.2c1.1,0,2.1-0.4,2.9-1.2c0.8-0.8,1.2-1.8,1.2-2.9
				s-0.4-2.1-1.2-2.9l-26.5-26.5C102.6,92.3,101.6,91.9,100.5,91.9L100.5,91.9z"/>
		</g>
	</g>
</g>
</svg>
