<?xml version="1.0" encoding="utf-8"?>
<!-- Generator: Adobe Illustrator 24.0.0, SVG Export Plug-In . SVG Version: 6.00 Build 0)  -->
<svg version="1.1" id="图层_1" xmlns="http://www.w3.org/2000/svg" xmlns:xlink="http://www.w3.org/1999/xlink" x="0px" y="0px"
	 viewBox="0 0 200 200" style="enable-background:new 0 0 200 200;" xml:space="preserve">
<style type="text/css">
	.st0{fill:#212121;}
	.st1{fill:#C02D28;}
</style>
<g>
	<g>
		<g>
			<path class="st0" d="M148,36h-12.7v-2.4c0-1.2-1-2.2-2.2-2.2h-11.7c-2.3-9.8-10.6-18.8-21-18.8s-19.3,9.1-21.6,18.8H67
				c-1.2,0-2.2,1-2.2,2.2V36H52c-15.2,0-27.7,11.8-27.7,27.1v96.6c0,15.4,12.4,27.8,27.7,27.8h96c15.2,0,27.7-12.5,27.7-27.8V63.1
				C175.7,47.7,163.3,36,148,36z M73.7,42c0.3-0.9,1.1-1.5,2.1-1.5H88v-5.9c0-6.6,5.8-12.8,12.3-12.8s11.4,6.2,11.4,12.8v5.9h11.9
				c1.2,0,2.2,1,2.2,2.2v21.6l0,0H73.7v-0.1V42z M165.9,159.7c0,9.7-8.3,18.4-18,18.4H52c-9.6,0-18.7-8.6-18.7-18.4V63.1
				c0-9.7,9-17.6,18.7-17.6h12.8v28.4h70.5l0,0l0,0V45.5H148c9.7,0,18,7.9,18,17.6v96.6H165.9z"/>
		</g>
	</g>
	<g>
		<g>
			<path class="st1" d="M100,155.9c-1,0-2-0.3-2.9-0.8c-0.5-0.3-0.9-0.7-1.2-1.2c-1.1-1.8-1.1-3.7-0.2-5.3s2.5-2.5,4.3-2.5
				c0.9,0,1.7,0.2,2.6,0.7c0.8,0.4,1.3,1,1.7,1.7c0.9,1.7,0.9,3.6,0,5.1C103.3,155,101.7,155.9,100,155.9L100,155.9z"/>
		</g>
		<g>
			<path class="st1" d="M100,146.9c0.7,0,1.4,0.2,2.1,0.6c0.6,0.3,1,0.8,1.3,1.3c1.6,3.1-0.6,6.2-3.5,6.2c-0.8,0-1.6-0.2-2.4-0.7
				c-0.4-0.2-0.7-0.5-0.9-0.9C94.8,150.2,97,146.9,100,146.9 M100,145.1c-2.1,0-4.1,1.1-5.1,3c-1.1,1.9-1,4.2,0.2,6.2
				c0.4,0.6,0.9,1.1,1.5,1.5c1.1,0.6,2.2,1,3.4,1c2,0,4-1.1,5-2.8c1.1-1.8,1.1-4.1,0.1-6c-0.5-0.9-1.2-1.6-2.1-2.1
				C102,145.4,101,145.1,100,145.1L100,145.1z"/>
		</g>
	</g>
	<g>
		<g>
			<path class="st1" d="M100,139c-1,0-2.8-0.5-3.6-4v-0.1l-1.8-35.4c0-4.8,2.3-8.2,5.5-8.2c2.6,0,5.5,2.9,5.5,7.5l-1.8,36.1v0.1
				C102.8,138.5,101,139,100,139z"/>
		</g>
		<g>
			<path class="st1" d="M100,92.3c2.3,0,4.6,2.6,4.6,6.5l-1.8,36c-0.5,2-1.4,3.3-2.8,3.3s-2.3-1.3-2.8-3.3l-1.8-35.4
				C95.4,95.5,97.2,92.3,100,92.3 M100,90.4c-3.7,0-6.4,3.8-6.4,9l0,0l0,0l1.8,35.4v0.2v0.2c1,4.2,3.5,4.7,4.5,4.7s3.5-0.5,4.5-4.7
				V135v-0.2l1.8-36l0,0l0,0C106.4,93.6,103.2,90.4,100,90.4L100,90.4z"/>
		</g>
	</g>
</g>
</svg>
