<?xml version="1.0" encoding="utf-8"?>
<!-- Generator: Adobe Illustrator 24.0.0, SVG Export Plug-In . SVG Version: 6.00 Build 0)  -->
<svg version="1.1" id="图层_1" xmlns="http://www.w3.org/2000/svg" xmlns:xlink="http://www.w3.org/1999/xlink" x="0px" y="0px"
	 viewBox="0 0 200 200" style="enable-background:new 0 0 200 200;" xml:space="preserve">
<style type="text/css">
	.st0{fill:#fff;}
</style>
<path class="st0" d="M115,195H56.5c-6.2,0-11.2-5-11.2-11.2V22.5c0-10.5,8.5-19,19-19H164c10.5,0,19,8.5,19,19v69.2c0,3.5-2.8,6-6,6
	s-6-2.8-6-6.2v-69c0-3.8-3-6.8-6.8-6.8h-100c-3.8,0-6.8,3-6.8,6.8v160.2H115c3.5,0,6,2.8,6,6C121,192,118.5,195,115,195z"/>
<path class="st0" d="M57.5,195H12.2C6,195,1,189.8,1,183.8v-66c0-10.5,8.5-19,19-19h18.5c10.5,0,19,8.5,19,19V195z M13.2,182.8h32.2
	v-65c0-3.8-3-6.8-6.8-6.8H20c-3.8,0-6.8,3-6.8,6.8C13.2,117.8,13.2,182.8,13.2,182.8z"/>
<path class="st0" d="M185.5,141c-1.5-2.2-4.2-2.8-6.5-1.5l-14.8,8.5c-0.8,0.5-1.8,0.5-2.5,0l-15-8.5c-1.2-0.8-2.5-1-3.8-0.5
	c-1.3,0.2-2.3,1.2-3,2.2c-1.2,2.5-0.5,5.5,1.8,6.8l15,8.8c0.8,0.5,1.2,1.2,1.2,2.2v16.5c0,1.2,0.5,2.5,1.5,3.5s2.2,1.5,3.2,1.5
	c2.8,0,5-2.3,5-5V159c0-1,0.5-2,1.2-2.2l14.8-8.5c1.2-0.8,2-1.8,2.2-3c0.2-1.2,0.2-2.5-0.5-3.8L185.5,141L185.5,141z"/>
<path class="st0" d="M193.8,128.5l-26.2-15.3c-3.2-2-7.2-2-10.5,0l-26.3,15.3c-3.2,2-5.2,5.2-5.2,9v30.8c0,3.8,2,7.2,5.2,9
	l26.3,15.2c1.8,1,3.5,1.5,5.2,1.5c1.8,0,3.8-0.5,5.2-1.5l26.2-15c3.2-2,5.2-5.2,5.2-9v-31C198.8,133.8,197,130.2,193.8,128.5z
	 M161.8,184l-25-15c-0.3-0.2-0.5-0.5-0.5-1v-30.2c0-0.2,0.2-0.8,0.5-1l25-15c0.2,0,0.2-0.3,0.5-0.3c0.2,0,0.2,0,0.5,0.3l25,15
	c0.2,0.3,0.5,0.5,0.5,1V168c0,0.3-0.3,0.8-0.5,1l-25,15H161.8z"/>
<path class="st0" d="M101.5,81H78c-5.5,0-9.8-4.2-9.8-9.8V47.7c0-5.5,4.2-9.8,9.8-9.8h23.7c5.5,0,9.8,4.2,9.8,9.8v23.8
	C111.2,76.8,107,81,101.5,81L101.5,81z M78.8,70.2h22V48.5h-22C78.7,48.5,78.7,70.2,78.8,70.2z M101.5,129.5H78
	c-5.5,0-9.8-4.3-9.8-9.8V96c0-5.5,4.2-9.8,9.8-9.8h23.7c5.5,0,9.8,4.3,9.8,9.8v23.7C111.2,125,107,129.5,101.5,129.5L101.5,129.5z
	 M78.8,118.8h22v-22h-22C78.7,96.8,78.7,118.8,78.8,118.8z"/>
<path class="st0" d="M151,81h-23.7c-5.5,0-9.8-4.2-9.8-9.8V47.7c0-5.5,4.2-9.8,9.8-9.8H151c5.5,0,9.8,4.2,9.8,9.8v23.8
	C160.8,76.8,156.2,81,151,81z M128.2,70.2h22V48.5h-22V70.2z"/>
</svg>
