<?xml version="1.0" encoding="utf-8"?>
<!-- Generator: Adobe Illustrator 24.0.0, SVG Export Plug-In . SVG Version: 6.00 Build 0)  -->
<svg version="1.1" id="图层_1" xmlns="http://www.w3.org/2000/svg" xmlns:xlink="http://www.w3.org/1999/xlink" x="0px" y="0px"
	 viewBox="0 0 200 200" style="enable-background:new 0 0 200 200;" xml:space="preserve">
<style type="text/css">
	.st0{fill:#fff;}
</style>
<path class="st0" d="M115.5,99.9L194.5,21c4-4,4-10.5,0-14.5L194,6c-4-4-10.5-4-14.5,0l-78.9,79L21.6,6c-4-4-10.5-4-14.5,0L6.6,6.4
	c-4,3.9-4.1,10.3-0.2,14.3c0.1,0.1,0.1,0.1,0.2,0.2l78.9,79L6.6,178.9c-4,4-4,10.5,0,14.5l0.4,0.4c4,4,10.5,4,14.5,0l78.9-78.9
	l78.9,78.9c4,4,10.5,4,14.5,0l0.4-0.4c4-4,4-10.5,0-14.5L115.5,99.9z"/>
</svg>
