<?xml version="1.0" encoding="utf-8"?>
<!-- Generator: Adobe Illustrator 24.0.0, SVG Export Plug-In . SVG Version: 6.00 Build 0)  -->
<svg version="1.1" id="图层_1" xmlns="http://www.w3.org/2000/svg" xmlns:xlink="http://www.w3.org/1999/xlink" x="0px" y="0px"
	 viewBox="0 0 533.2 200" style="enable-background:new 0 0 533.2 200;" xml:space="preserve">
<style type="text/css">
	.st0{fill:#50C764;}
</style>
<path class="st0" d="M434.1,100c0,13.8-11.1,25-24.8,25c-13.7,0-24.8-11.2-24.8-25s11.1-25,24.8-25C423,75,434.1,86.2,434.1,100z
	 M12.9,200C5.8,200,0,194.2,0,187.1V13C0,5.8,5.8,0,12.9,0H430c0.7,0,1.5,0.1,2.2,0.2c3.1-0.6,6.3,0.3,8.7,2.7l89.6,90.8
	c3.8,3.9,3.7,10-0.2,13.8l-90.5,89.6c-2.2,2.2-5.3,3.1-8.2,2.8c-0.5,0.1-1.1,0.1-1.6,0.1H12.9L12.9,200z M409,58.4
	c-23,0-41.6,18.7-41.6,41.7c0,0,0,0,0,0c0,23,18.6,41.7,41.6,41.7c23,0,41.6-18.7,41.6-41.7c0,0,0,0,0,0C450.6,77,432,58.4,409,58.4
	z"/>
</svg>
