<?xml version="1.0" encoding="utf-8"?>
<!-- Generator: Adobe Illustrator 24.0.0, SVG Export Plug-In . SVG Version: 6.00 Build 0)  -->
<svg version="1.1" id="图层_1" xmlns="http://www.w3.org/2000/svg" xmlns:xlink="http://www.w3.org/1999/xlink" x="0px" y="0px"
	 viewBox="0 0 200 200" style="enable-background:new 0 0 200 200;" xml:space="preserve">
<style type="text/css">
	.st0{fill:#CF111B;}
</style>
<path class="st0" d="M174.4,76.6v94.7c0,1.7-1.4,3.1-3.1,3.1H29.1c-1.7,0-3.1-1.4-3.1-3.1V29c0-1.7,1.4-3.1,3.1-3.1h88V9.5h-88
	C18.3,9.5,9.5,18.3,9.5,29v142.3c0,10.8,8.8,19.6,19.6,19.6h142.3c10.8,0,19.6-8.8,19.6-19.6V76.6C190.9,76.6,174.4,76.6,174.4,76.6
	z"/>
<path class="st0" d="M65.3,128.6c-4.6,0-8.2,3.7-8.2,8.2s3.7,8.2,8.2,8.2H135c4.6,0,8.2-3.7,8.2-8.2s-3.7-8.2-8.2-8.2H65.3z
	 M93.6,106.2c1.6,1.6,3.7,2.4,5.8,2.4c2.1,0,4.2-0.8,5.8-2.4L178.6,33c3.2-3.2,3.2-8.4,0-11.7c-3.2-3.2-8.4-3.2-11.7,0L93.6,94.6
	C90.4,97.8,90.4,103,93.6,106.2z"/>
</svg>
