<?xml version="1.0" encoding="utf-8"?>
<!-- Generator: Adobe Illustrator 24.0.0, SVG Export Plug-In . SVG Version: 6.00 Build 0)  -->
<svg version="1.1" id="图层_1" xmlns="http://www.w3.org/2000/svg" xmlns:xlink="http://www.w3.org/1999/xlink" x="0px" y="0px"
	 viewBox="0 0 200 200" style="enable-background:new 0 0 200 200;" xml:space="preserve">
<style type="text/css">
	.st0{fill:#212121;}
	.st1{fill:#c02d28;}
</style>
<path class="st0" d="M148,35.6h-12.7v-2.4c0-1.2-1-2.2-2.2-2.2h-11.7c-2.3-9.8-10.6-18.8-21-18.8S81.1,21.3,78.8,31H67
	c-1.2,0-2.2,1-2.2,2.2v2.4H52c-15.2,0-27.7,11.8-27.7,27.1v96.6c0,15.4,12.4,27.8,27.7,27.8h96c15.2,0,27.7-12.5,27.7-27.8V62.7
	C175.7,47.3,163.3,35.6,148,35.6z M75.8,40.1H88v-5.9c0-6.6,5.8-12.8,12.3-12.8s11.4,6.2,11.4,12.8v5.9h11.9c1.2,0,2.2,1,2.2,2.2
	v21.6l0,0H73.7v-0.1V41.6C74,40.7,74.9,40.1,75.8,40.1z M165.9,159.2c0,9.7-8.3,18.4-18,18.4H52c-9.6,0-18.7-8.6-18.7-18.4V62.7
	c0-9.7,9-17.6,18.7-17.6h12.8v28.4h70.5l0,0l0,0V45.1H148c9.7,0,18,7.9,18,17.6v96.5H165.9z"/>
<g>
	<g>
		<path class="st1" d="M100,154.6c-4.2,0-8.3-0.8-12.2-2.5c-3.7-1.6-7.1-3.8-10-6.7c-2.9-2.9-5.2-6.2-6.7-10
			c-1.6-3.9-2.5-8-2.5-12.2s0.8-8.3,2.5-12.2c1.6-3.7,3.8-7.1,6.7-10c2.9-2.9,6.2-5.2,10-6.7c3.9-1.6,8-2.5,12.2-2.5
			s8.3,0.8,12.2,2.5c3.7,1.6,7.1,3.8,10,6.7c2.9,2.9,5.2,6.2,6.7,10c1.6,3.9,2.5,8,2.5,12.2s-0.8,8.3-2.5,12.2
			c-1.6,3.7-3.8,7.1-6.7,10s-6.2,5.2-10,6.7C108.4,153.8,104.2,154.6,100,154.6z M100,98.3c-6.7,0-12.9,2.6-17.6,7.3
			c-4.7,4.7-7.3,11-7.3,17.6c0,6.7,2.6,12.9,7.3,17.6c4.7,4.7,11,7.3,17.6,7.3c6.7,0,12.9-2.6,17.6-7.3s7.3-11,7.3-17.6
			c0-6.7-2.6-12.9-7.3-17.6C112.9,100.9,106.7,98.3,100,98.3z"/>
		<path class="st1" d="M100,92.6c4.1,0,8.1,0.8,11.9,2.4c3.6,1.5,6.9,3.7,9.7,6.6c2.8,2.8,5,6.1,6.6,9.7c1.6,3.8,2.4,7.8,2.4,11.9
			s-0.8,8.1-2.4,11.9c-1.5,3.6-3.7,6.9-6.6,9.7c-2.8,2.8-6.1,5-9.7,6.6c-3.8,1.6-7.8,2.4-11.9,2.4c-4.1,0-8.1-0.8-11.9-2.4
			c-3.6-1.5-6.9-3.7-9.7-6.6c-2.8-2.8-5-6.1-6.6-9.7c-1.6-3.8-2.4-7.8-2.4-11.9s0.8-8.1,2.4-11.9c1.5-3.6,3.7-6.9,6.6-9.7
			c2.8-2.8,6.1-5,9.7-6.6C91.9,93.4,95.9,92.6,100,92.6 M100,148.9c6.9,0,13.3-2.7,18.2-7.5c4.9-4.9,7.5-11.3,7.5-18.2
			s-2.7-13.3-7.5-18.2c-4.9-4.9-11.3-7.5-18.2-7.5s-13.3,2.7-18.2,7.5c-4.9,4.9-7.5,11.3-7.5,18.2s2.7,13.3,7.5,18.2
			C86.7,146.3,93.1,148.9,100,148.9 M100,91c-4.3,0-8.6,0.9-12.5,2.5c-3.8,1.6-7.3,3.9-10.2,6.9c-2.9,2.9-5.3,6.4-6.9,10.2
			c-1.7,4-2.5,8.2-2.5,12.5s0.9,8.6,2.5,12.5c1.6,3.8,3.9,7.3,6.9,10.2c2.9,2.9,6.4,5.3,10.2,6.9c4,1.7,8.2,2.5,12.5,2.5
			c4.4,0,8.6-0.9,12.5-2.5c3.8-1.6,7.3-3.9,10.2-6.9c2.9-2.9,5.3-6.4,6.9-10.2c1.7-4,2.5-8.2,2.5-12.5s-0.9-8.6-2.5-12.5
			c-1.6-3.8-3.9-7.3-6.9-10.2c-2.9-2.9-6.4-5.3-10.2-6.9C108.6,91.9,104.3,91,100,91L100,91z M100,147.4c-6.5,0-12.5-2.5-17.1-7.1
			c-4.6-4.6-7.1-10.6-7.1-17.1c0-6.5,2.5-12.5,7.1-17.1c4.6-4.6,10.6-7.1,17.1-7.1s12.5,2.5,17.1,7.1c4.6,4.6,7.1,10.6,7.1,17.1
			c0,6.5-2.5,12.5-7.1,17.1C112.5,144.9,106.5,147.4,100,147.4L100,147.4z"/>
	</g>
	<g>
		<path class="st1" d="M100,126.4c-0.9,0-1.7-0.3-2.3-0.9c-0.6-0.6-0.9-1.4-0.9-2.3v-18.3c0-1.8,1.4-3.2,3.2-3.2s3.2,1.4,3.2,3.2
			V120l14.8-0.1c1.8,0,3.2,1.4,3.2,3.2c0,0.9-0.3,1.7-0.9,2.3c-0.6,0.6-1.4,1-2.3,1H100L100,126.4z"/>
		<path class="st1" d="M100,102.4c1.3,0,2.4,1.1,2.4,2.4v15.9l15.6-0.1c1.3,0,2.4,1.1,2.4,2.4s-1.1,2.5-2.4,2.5l-18,0.1l0,0l0,0
			c-0.7,0-1.3-0.3-1.7-0.7c-0.5-0.5-0.7-1.1-0.7-1.7v-18.3C97.6,103.5,98.7,102.4,100,102.4 M100,100.9c-2.2,0-4,1.8-4,4v18.3
			c0,1.1,0.4,2.1,1.2,2.8c0.8,0.8,1.8,1.2,2.8,1.2l18-0.1c1.1,0,2.1-0.4,2.8-1.2c0.8-0.8,1.2-1.8,1.2-2.8c0-2.2-1.8-4-4-4l-14,0.1
			v-14.3C104,102.7,102.2,100.9,100,100.9L100,100.9z"/>
	</g>
</g>
</svg>
