<?xml version="1.0" encoding="utf-8"?>
<!-- Generator: Adobe Illustrator 24.0.0, SVG Export Plug-In . SVG Version: 6.00 Build 0)  -->
<svg version="1.1" id="图层_1" xmlns="http://www.w3.org/2000/svg" xmlns:xlink="http://www.w3.org/1999/xlink" x="0px" y="0px"
	 viewBox="0 0 200 200" style="enable-background:new 0 0 200 200;" xml:space="preserve">
<style type="text/css">
	.st0{fill:#D81E06;}
</style>
<path class="st0" d="M84.7,37.3L91,31v43.3c0,4.8,3.9,8.7,8.7,8.7c4.8,0,8.7-3.9,8.7-8.7V31l6.3,6.3c1.7,1.7,3.9,2.5,6.1,2.5
	s4.4-0.8,6.1-2.5c3.4-3.4,3.4-8.9,0-12.2L107,5.1c-4-4-10.6-4-14.6,0l-20,20c-3.4,3.4-3.4,8.9,0,12.2S81.3,40.7,84.7,37.3z"/>
<path class="st0" d="M114.7,162.1l-6.3,6.3v-43.3c0-4.8-3.9-8.7-8.7-8.7c-4.8,0-8.7,3.9-8.7,8.7v43.3l-6.3-6.3
	c-3.4-3.4-8.9-3.4-12.2,0c-3.4,3.4-3.4,8.9,0,12.2l19.9,19.9c2,2,4.6,3,7.3,3c2.6,0,5.3-1,7.3-3l19.9-19.9c3.4-3.4,3.4-8.9,0-12.2
	C123.5,158.7,118,158.7,114.7,162.1L114.7,162.1z"/>
<path class="st0" d="M83,99.6c0-4.8-3.9-8.7-8.7-8.7H31.1l6.3-6.3c3.4-3.4,3.4-8.9,0-12.2s-8.9-3.4-12.2,0l-20,19.9
	c-1.9,1.9-3,4.5-3,7.3s1.1,5.3,3,7.3l19.9,19.9c1.7,1.7,3.9,2.5,6.1,2.5s4.4-0.8,6.1-2.5c3.4-3.4,3.4-8.9,0-12.2l-6.3-6.3h43.3
	C79.2,108.2,83,104.4,83,99.6L83,99.6z"/>
<path class="st0" d="M194.1,92.3l-19.9-19.9c-3.4-3.4-8.9-3.4-12.2,0c-3.4,3.4-3.4,8.9,0,12.2l6.3,6.3H125c-4.8,0-8.7,3.9-8.7,8.7
	s3.9,8.7,8.7,8.7h43.3l-6.3,6.3c-3.4,3.4-3.4,8.9,0,12.2c1.7,1.7,3.9,2.5,6.1,2.5s4.4-0.8,6.1-2.5l19.9-19.9c1.9-1.9,3-4.5,3-7.3
	C197.1,96.8,196.1,94.2,194.1,92.3L194.1,92.3z"/>
</svg>
