<?xml version="1.0" standalone="no"?><!DOCTYPE svg PUBLIC "-//W3C//DTD SVG 1.1//EN" "http://www.w3.org/Graphics/SVG/1.1/DTD/svg11.dtd"><svg t="1589019098141" class="icon" viewBox="0 0 1024 1024" version="1.1" xmlns="http://www.w3.org/2000/svg" p-id="2432" xmlns:xlink="http://www.w3.org/1999/xlink" width="200" height="200"><defs><style type="text/css"></style></defs><path d="M511.232 682.24c19.456 0 35.584 15.872 35.584 35.584s-15.872 35.584-35.584 35.584c-19.456 0-35.328-15.872-35.328-35.584s15.872-35.584 35.328-35.584zM511.232 1024s-89.344-33.536-89.344-81.92c0-34.048 33.792-111.104 59.648-165.376 8.96 4.352 18.944 6.912 29.44 6.912 10.752 0 20.736-2.56 29.44-6.912 26.112 54.272 59.648 131.328 59.648 165.376 0.512 48.384-88.832 81.92-88.832 81.92zM921.6 1023.488c-22.784 0-41.472-18.688-41.472-41.472 0-115.968-52.992-222.72-145.152-293.376-18.176-13.824-21.76-39.936-7.68-58.368 13.824-18.176 39.936-21.76 58.112-7.68 112.896 86.272 177.664 217.344 177.664 359.424 0 23.04-18.432 41.472-41.472 41.472z" fill="#CF111B" p-id="2433"></path><path d="M511.232 2.56C343.04 2.56 205.824 139.52 205.824 307.712c0 102.912 52.992 198.656 137.728 254.72-169.216 68.096-284.16 235.008-284.16 419.584 0 22.784 18.688 41.472 41.472 41.472s41.472-18.688 41.472-41.472c0-203.264 165.376-368.896 368.896-368.896 168.448 0 305.408-136.96 305.408-305.408C816.64 139.52 679.68 2.56 511.232 2.56z m0 527.616c-122.624 0-222.208-99.84-222.208-222.208 0-122.624 99.84-222.208 222.208-222.208 122.624 0 222.208 99.84 222.208 222.208 0.256 122.368-99.584 222.208-222.208 222.208z" fill="#CF111B" p-id="2434"></path></svg>